# xmcd CD database file generated by OrangeCD 4.3
#
# Track frame offsets:
#	150
#	12710
#	26705
#	49835
#	62082
#	84477
#	98540
#	117392
#	134720
#	147240
#	167040
#	179052
#	195315
#
# Disc length: 2821 seconds
#
# Revision: 7
# Processed by: cddbd v1.4PL0 Copyright (c) Steve Scherf et al.
# Submitted via: OrangeCD 4.3
#
DISCID=bb0b030d
DTITLE=Cruel Sea - The Honeymoon Is Over
DYEAR=1993
DGENRE=Rock
TTITLE0=Orleans Stomp
TTITLE1=The Honeymoon Is Over
TTITLE2=Delivery Man
TTITLE3=The Right Time
TTITLE4=Black Stick
TTITLE5=Sly Din
TTITLE6=Naked Flame
TTITLE7=Woman With Soul
TTITLE8=Seems Twice
TTITLE9=Better Than Love
TTITLE10=X-N-Pop
TTITLE11=Let's Lay Down Here and Make Love
TTITLE12=Blame It On The Moon
EXTD=YEAR: 1993
EXTT0=
EXTT1=
EXTT2=
EXTT3=
EXTT4=
EXTT5=
EXTT6=
EXTT7=
EXTT8=
EXTT9=
EXTT10=
EXTT11=
EXTT12=
PLAYORDER=
